<svg width="25" height="21" viewBox="0 0 25 21" fill="none" xmlns="http://www.w3.org/2000/svg">
<path d="M6.61 0.145466L10.53 1.68547L7.03 9.94547C8.29 10.2255 9.27 10.8555 9.97 11.8355C10.7167 12.7688 11.09 13.8888 11.09 15.1955C11.09 16.6421 10.6233 17.9021 9.69 18.9755C8.75667 20.0021 7.47333 20.5155 5.84 20.5155C4.3 20.5155 3.08667 20.0021 2.2 18.9755C1.36 17.9021 0.94 16.4788 0.94 14.7055C0.94 13.5855 1.26667 12.0921 1.92 10.2255C2.62 8.31213 3.25 6.77213 3.81 5.60547C4.41667 4.39213 5.35 2.57213 6.61 0.145466ZM20.33 0.145466L24.25 1.68547L20.75 9.94547C22.01 10.2255 22.99 10.8555 23.69 11.8355C24.4367 12.7688 24.81 13.8888 24.81 15.1955C24.81 16.6421 24.3433 17.9021 23.41 18.9755C22.4767 20.0021 21.1933 20.5155 19.56 20.5155C18.02 20.5155 16.8067 20.0021 15.92 18.9755C15.08 17.9021 14.66 16.4788 14.66 14.7055C14.66 13.5855 14.9867 12.0921 15.64 10.2255C16.34 8.31213 16.97 6.77213 17.53 5.60547C18.1367 4.39213 19.07 2.57213 20.33 0.145466Z" fill="#4A4A4A" fill-opacity="0.15"/>
</svg>
