<svg width="146" height="28" viewBox="0 0 146 28" fill="none" xmlns="http://www.w3.org/2000/svg">
<path d="M136.935 0.0839474H134.837C127.559 0.0839474 124.059 3.82442 123.257 8.43727L121.384 19.2148C120.582 23.8288 122.782 27.5681 130.061 27.5681H132.159C139.437 27.5681 142.937 23.8288 143.739 19.2148L145.612 8.43727C146.414 3.82442 144.213 0.0839474 136.935 0.0839474ZM138.209 9.25165L136.617 18.4111C136.343 19.9949 134.814 21.291 133.223 21.291H131.178C129.586 21.291 128.509 19.9949 128.785 18.4111L130.376 9.25165C130.652 7.66787 132.179 6.37173 133.77 6.37173H135.816C137.407 6.37173 138.485 7.66905 138.209 9.25165ZM114.962 0.0839474H101.513C100.876 0.0839474 100.266 0.602405 100.155 1.23568L95.7809 26.4046C95.6703 27.039 96.102 27.5575 96.7383 27.5575H101.658C102.295 27.5575 102.906 27.039 103.017 26.4046L104.412 18.3744H106.569L109.471 26.5371C109.669 27.0982 110.354 27.5563 110.991 27.5563H116.489C117.125 27.5563 117.483 27.0982 117.283 26.5371L114.254 18.0133C117.024 17.1564 119.316 14.7179 120.121 10.0862L120.419 8.3698C121.455 2.41582 118.772 0.0839474 114.962 0.0839474ZM113.02 9.32149L112.913 9.93583C112.541 12.0677 111.292 12.9022 109.929 12.9022H105.363L106.501 6.35515H111.068C112.431 6.35515 113.391 7.18966 113.02 9.32149ZM96.6836 1.2345C96.793 0.601221 96.3624 0.0827637 95.7262 0.0827637H79.8813C79.2439 0.0827637 78.6338 0.601221 78.5232 1.2345L74.149 26.4034C74.0384 27.0378 74.4701 27.5563 75.1063 27.5563H90.95C91.5875 27.5563 92.1976 27.0378 92.3082 26.4034L92.9968 22.4427C93.1074 21.8095 92.6757 21.2898 92.0394 21.2898H82.273L83.0734 16.6805H92.2618C92.8993 16.6805 93.5094 16.1621 93.62 15.5288L94.2146 12.1079C94.3252 11.4746 93.8935 10.955 93.2572 10.955H84.0688L84.8692 6.34568H94.6356C95.2719 6.34568 95.8832 5.82723 95.9938 5.19277L96.6836 1.2345ZM73.5151 0.0839474H68.5962C67.9587 0.0839474 67.3486 0.602405 67.238 1.23568L65.039 13.8894L60.4924 1.10311C60.2938 0.542037 59.6088 0.0839474 58.9725 0.0839474H53.4732C53.3912 0.0839474 53.3127 0.0910495 53.2401 0.106438C52.6942 0.214154 52.2114 0.680529 52.1151 1.23568L47.7409 26.4046C47.6315 27.039 48.062 27.5575 48.6983 27.5575H53.6183C54.2546 27.5575 54.8659 27.039 54.9765 26.4046L57.1755 13.7521L61.7209 26.5383C61.9195 27.0994 62.6046 27.5575 63.2408 27.5575H68.7401C68.8222 27.5575 68.9007 27.5492 68.972 27.5338C69.5191 27.4284 70.0007 26.9609 70.0971 26.4046L74.4713 1.23568C74.5819 0.601221 74.1513 0.0839474 73.5151 0.0839474ZM48.6447 1.2345C48.7553 0.601221 48.3236 0.0827637 47.6874 0.0827637H31.8425C31.2062 0.0827637 30.5949 0.601221 30.4843 1.2345L26.1101 26.4034C26.0007 27.0378 26.4313 27.5563 27.0675 27.5563H42.9112C43.5475 27.5563 44.1587 27.0378 44.2694 26.4034L44.958 22.4427C45.0674 21.8095 44.6368 21.2898 44.0006 21.2898H34.2342L35.0357 16.6805H44.2242C44.8604 16.6805 45.4717 16.1621 45.5823 15.5288L46.177 12.1079C46.2876 11.4746 45.8559 10.955 45.2196 10.955H36.0312L36.8316 6.34568H46.598C47.2354 6.34568 47.8455 5.82723 47.9561 5.19277L48.6447 1.2345ZM17.0835 0.0839474H6.01479C5.37733 0.0839474 4.76723 0.602405 4.65662 1.23568L3.34365 8.78883L6.18961 11.9943C6.94481 12.8453 6.79734 14.0717 5.86018 14.7191L1.82731 17.5091L0.280051 26.4152C0.169447 27.0485 0.601158 27.5669 1.23743 27.5669H12.3061C19.5845 27.5669 23.0846 23.8276 23.8862 19.2136L25.7593 8.43609C26.5621 3.82442 24.3619 0.0839474 17.0835 0.0839474ZM18.3572 9.25165L16.7659 18.4111C16.49 19.9949 14.963 21.291 13.3717 21.291H8.43142L11.0241 6.37173H15.9632C17.5556 6.37173 18.6331 7.66905 18.3572 9.25165Z" fill="#FABB03"/>
</svg>
