<svg width="15" height="15" viewBox="0 0 15 15" fill="none" xmlns="http://www.w3.org/2000/svg">
<path d="M13.9427 14.7421C14.3841 14.7421 14.7421 14.3842 14.7421 13.9426V1.05723C14.7421 0.61565 14.3842 0.257812 13.9427 0.257812H1.05723C0.615653 0.257812 0.257812 0.61565 0.257812 1.05723V13.9426C0.257812 14.3841 0.615596 14.7421 1.05723 14.7421H13.9427Z" fill="#3C5A99"/>
<path d="M10.2518 14.7421V9.13301H12.1345L12.4164 6.94704H10.2518V5.55143C10.2518 4.91854 10.4275 4.48725 11.3351 4.48725L12.4926 4.48674V2.53159C12.2924 2.50495 11.6053 2.44543 10.8059 2.44543C9.13696 2.44543 7.99437 3.46415 7.99437 5.33494V6.94704H6.10681V9.13301H7.99437V14.7421H10.2518Z" fill="white"/>
</svg>
