<svg width="21" height="21" viewBox="0 0 21 21" fill="none" xmlns="http://www.w3.org/2000/svg">
<g clip-path="url(#clip0)">
<path d="M20.2833 6.7626C20.236 5.69108 20.0624 4.95442 19.8137 4.3161C19.5572 3.63853 19.1625 3.0319 18.6454 2.52761C18.1402 2.01548 17.5284 1.61752 16.8574 1.36545C16.2142 1.11723 15.48 0.943956 14.4065 0.896712C13.325 0.845468 12.9817 0.833618 10.2386 0.833618C7.49553 0.833618 7.15218 0.845468 6.07466 0.892711C5.00115 0.939955 4.26312 1.11339 3.62376 1.36145C2.94477 1.61752 2.33702 2.01147 1.83179 2.52761C1.3187 3.0319 0.92016 3.64253 0.667469 4.31225C0.418786 4.95442 0.245186 5.68708 0.197855 6.7586C0.146515 7.83812 0.134644 8.18083 0.134644 10.9188C0.134644 13.6568 0.146515 13.9995 0.193846 15.075C0.241178 16.1465 0.414932 16.8832 0.663615 17.5215C0.92016 18.1991 1.3187 18.8057 1.83179 19.31C2.33702 19.8221 2.94878 20.2201 3.61975 20.4721C4.26312 20.7204 4.99714 20.8936 6.07081 20.9409C7.14817 20.9883 7.49167 21 10.2347 21C12.9778 21 13.3211 20.9883 14.3987 20.9409C15.4722 20.8936 16.2102 20.7204 16.8496 20.4721C18.2074 19.9482 19.2809 18.8766 19.8059 17.5215C20.0544 16.8793 20.2281 16.1465 20.2755 15.075C20.3228 13.9995 20.3347 13.6568 20.3347 10.9188C20.3347 8.18083 20.3307 7.83812 20.2833 6.7626ZM18.4639 14.9962C18.4205 15.9811 18.2547 16.5129 18.1166 16.8675C17.7771 17.746 17.0785 18.4433 16.1983 18.7822C15.8431 18.92 15.3064 19.0855 14.3236 19.1287C13.2579 19.1761 12.9383 19.1878 10.2426 19.1878C7.54687 19.1878 7.22326 19.1761 6.16146 19.1287C5.17475 19.0855 4.64192 18.92 4.2867 18.7822C3.8487 18.6206 3.45 18.3645 3.12639 18.0296C2.79091 17.7026 2.53436 17.3087 2.37248 16.8715C2.23434 16.5169 2.0686 15.9811 2.02528 15.0002C1.97779 13.9365 1.96608 13.6174 1.96608 10.9266C1.96608 8.23592 1.97779 7.91291 2.02528 6.85324C2.0686 5.86836 2.23434 5.33652 2.37248 4.98197C2.53436 4.54462 2.79091 4.14682 3.1304 3.82366C3.45786 3.4888 3.85255 3.23273 4.29071 3.0713C4.64593 2.93342 5.18276 2.76799 6.16547 2.72459C7.23112 2.67735 7.55088 2.6655 10.2465 2.6655C12.9462 2.6655 13.2658 2.67735 14.3276 2.72459C15.3143 2.76799 15.8471 2.93342 16.2024 3.0713C16.6404 3.23273 17.0391 3.4888 17.3627 3.82366C17.6981 4.15067 17.9547 4.54462 18.1166 4.98197C18.2547 5.33652 18.4205 5.87221 18.4639 6.85324C18.5113 7.91691 18.5231 8.23592 18.5231 10.9266C18.5231 13.6174 18.5113 13.9325 18.4639 14.9962Z" fill="white" fill-opacity="0.3"/>
<path d="M10.2386 5.73755C7.37325 5.73755 5.04846 8.05787 5.04846 10.918C5.04846 13.7782 7.37325 16.0985 10.2386 16.0985C13.1041 16.0985 15.4287 13.7782 15.4287 10.918C15.4287 8.05787 13.1041 5.73755 10.2386 5.73755ZM10.2386 14.2785C8.3797 14.2785 6.87188 12.7736 6.87188 10.918C6.87188 9.06245 8.3797 7.55758 10.2386 7.55758C12.0976 7.55758 13.6053 9.06245 13.6053 10.918C13.6053 12.7736 12.0976 14.2785 10.2386 14.2785Z" fill="white" fill-opacity="0.3"/>
<path d="M16.8457 5.53289C16.8457 6.20077 16.3032 6.7423 15.6339 6.7423C14.9648 6.7423 14.4222 6.20077 14.4222 5.53289C14.4222 4.86486 14.9648 4.32349 15.6339 4.32349C16.3032 4.32349 16.8457 4.86486 16.8457 5.53289Z" fill="white" fill-opacity="0.3"/>
</g>
<defs>
<clipPath id="clip0">
<rect x="0.0991211" y="0.833618" width="20.204" height="20.1664" fill="white"/>
</clipPath>
</defs>
</svg>
