<svg width="20" height="13" viewBox="0 0 20 13" fill="none" xmlns="http://www.w3.org/2000/svg">
<path id="vk copy" d="M19.1348 1.12045H15.9059C15.6374 1.12045 15.3906 1.28027 15.2636 1.5364C15.2636 1.5364 13.9758 4.10387 13.5621 4.96865C12.4493 7.29499 11.7287 6.56467 11.7287 5.48499V1.76225C11.7287 1.11445 11.2436 0.589306 10.6452 0.589306H8.21744C7.54523 0.5352 6.89507 0.861789 6.49921 1.45241C6.49921 1.45241 7.73196 1.23664 7.73196 3.03478C7.73196 3.48066 7.75318 4.76336 7.77251 5.83921C7.77997 6.16394 7.59955 6.45925 7.32058 6.57889C7.04161 6.69852 6.72332 6.6171 6.52333 6.37494C5.52963 4.8788 4.70652 3.25819 4.07187 1.54834C3.96057 1.28715 3.71897 1.12003 3.45326 1.12045C2.75301 1.12045 1.35175 1.12045 0.51959 1.12045C0.355785 1.11924 0.201886 1.20523 0.107906 1.35047C0.013925 1.49572 -0.00814201 1.68167 0.0488756 1.84791C0.939679 4.49307 4.77698 12.8056 9.15687 12.8056H11.0004C11.4026 12.8056 11.7287 12.4526 11.7287 12.0172V10.8121C11.7287 10.5032 11.8982 10.2238 12.1602 10.1011C12.4221 9.97843 12.7264 10.036 12.9344 10.2475L15.1409 12.4918C15.3391 12.6934 15.6007 12.8056 15.8726 12.8056H18.7702C20.1677 12.8056 20.1677 11.7558 19.4058 10.9435C18.8695 10.3718 16.9346 8.16387 16.9346 8.16387C16.5922 7.7799 16.5595 7.18304 16.8577 6.75801C17.4831 5.867 18.5061 4.40849 18.94 3.78368C19.533 2.92966 20.6063 1.12045 19.1348 1.12045Z" fill="white" fill-opacity="0.3"/>
</svg>
