<svg width="48" height="45" viewBox="0 0 48 45" fill="none" xmlns="http://www.w3.org/2000/svg">
<path d="M38.45 15V15.25H38.7H43.1654C45.4881 15.25 47.3807 17.1545 47.3807 19.5V40.5C47.3807 42.8455 45.4881 44.75 43.1654 44.75H31.2577C28.9349 44.75 27.0423 42.8455 27.0423 40.5V30V29.75H26.7923H20.8384H20.5884V30V34.5V34.75H20.8384H23.8154C24.4971 34.75 25.0538 35.3082 25.0538 36C25.0538 36.6918 24.4971 37.25 23.8154 37.25H14.8846C14.2029 37.25 13.6461 36.6918 13.6461 36C13.6461 35.3082 14.2029 34.75 14.8846 34.75H17.8615H18.1115V34.5V30V29.75H17.8615H4.46538C2.14261 29.75 0.25 27.8455 0.25 25.5V4.5C0.25 2.1545 2.14261 0.25 4.46538 0.25H34.2346C36.5574 0.25 38.45 2.1545 38.45 4.5V15ZM35.7231 15.25H35.9731V15V4.5C35.9731 3.5365 35.1954 2.75 34.2346 2.75H4.46538C3.50461 2.75 2.72692 3.5365 2.72692 4.5V25.5C2.72692 26.4643 3.50469 27.25 4.46538 27.25H26.7923H27.0423V27V19.5C27.0423 17.1545 28.9349 15.25 31.2577 15.25H35.7231ZM43.1654 42.25C44.126 42.25 44.9038 41.4643 44.9038 40.5V19.5C44.9038 18.5365 44.1261 17.75 43.1654 17.75H31.2577C30.2969 17.75 29.5192 18.5365 29.5192 19.5V40.5C29.5192 41.4643 30.297 42.25 31.2577 42.25H43.1654Z" fill="black" stroke="white" stroke-width="0.5"/>
</svg>
